<svg width="221" height="94" viewBox="0 0 221 94" fill="none" xmlns="http://www.w3.org/2000/svg">
<path d="M157.997 24.0083H123.881V69.0781H135.337V51.9365H150.304V41.4843H139.685V44.411L131.741 38.2233L139.685 31.6175V34.795H154.402L157.997 24.0083Z" fill="url(#paint0_linear)" stroke="url(#paint1_linear)" stroke-width="0.33447"/>
<path d="M119.784 23.9248H86.0027V69.0782H97.7091V50.8496H104.566V54.8633L115.269 46.4179L104.566 37.8053V42.1534H97.7091V34.9623H116.439L119.784 23.9248Z" fill="url(#paint2_linear)" stroke="url(#paint3_linear)" stroke-width="0.33447"/>
<path d="M193.683 50.3676C193.683 51.6118 193.6 52.7316 193.434 53.727H168.238C168.446 56.2155 169.317 58.1647 170.851 59.5749C172.386 60.985 174.273 61.6901 176.512 61.6901C179.747 61.6901 182.049 60.3007 183.418 57.5219H192.812C191.816 60.8398 189.909 63.5771 187.088 65.7338C184.268 67.849 180.805 68.9066 176.699 68.9066C173.381 68.9066 170.395 68.1808 167.741 66.7292C165.128 65.2361 163.075 63.1417 161.582 60.4458C160.13 57.75 159.404 54.6394 159.404 51.1141C159.404 47.5473 160.13 44.416 161.582 41.7202C163.033 39.0244 165.066 36.9507 167.678 35.4991C170.291 34.0475 173.298 33.3217 176.699 33.3217C179.976 33.3217 182.899 34.0267 185.471 35.4369C188.084 36.847 190.095 38.8585 191.505 41.4714C192.957 44.0428 193.683 47.0082 193.683 50.3676ZM184.662 47.8791C184.621 45.6395 183.812 43.8561 182.236 42.529C180.66 41.1603 178.731 40.476 176.45 40.476C174.294 40.476 172.469 41.1396 170.976 42.4667C169.524 43.7524 168.632 45.5566 168.301 47.8791H184.662ZM207.692 39.2318C208.812 37.4069 210.263 35.976 212.047 34.9392C213.872 33.9023 215.945 33.3839 218.268 33.3839V42.529H215.966C213.229 42.529 211.155 43.1718 209.745 44.4575C208.376 45.7432 207.692 47.9828 207.692 51.1763V68.3467H198.982V33.8816H207.692V39.2318Z" fill="url(#paint4_linear)"/>
<path d="M28.9283 45.7283C31.3753 46.1845 33.3868 47.408 34.9628 49.3988C36.5388 51.3896 37.3268 53.6706 37.3268 56.242C37.3268 58.5646 36.7462 60.6176 35.5849 62.401C34.4651 64.1429 32.8269 65.5115 30.6702 66.5069C28.5136 67.5023 25.9629 68 23.0182 68H4.29259V24.5765H22.2095C25.1541 24.5765 27.6841 25.0534 29.7993 26.0073C31.9559 26.9612 33.5734 28.2884 34.6517 29.9888C35.7715 31.6893 36.3314 33.6178 36.3314 35.7745C36.3314 38.3044 35.6471 40.4196 34.2785 42.1201C32.9513 43.8205 31.1679 45.0233 28.9283 45.7283ZM13.0022 42.4933H20.9652C23.0389 42.4933 24.6357 42.0371 25.7555 41.1247C26.8753 40.1708 27.4352 38.8229 27.4352 37.0809C27.4352 35.339 26.8753 33.9911 25.7555 33.0372C24.6357 32.0833 23.0389 31.6063 20.9652 31.6063H13.0022V42.4933ZM21.774 60.9079C23.8892 60.9079 25.5274 60.4102 26.6887 59.4148C27.8914 58.4194 28.4928 57.0093 28.4928 55.1845C28.4928 53.3181 27.8707 51.8665 26.6265 50.8297C25.3822 49.7513 23.7025 49.2122 21.5873 49.2122H13.0022V60.9079H21.774ZM75.7472 33.5349V68H66.9754V63.6452C65.8556 65.1383 64.3833 66.3203 62.5584 67.1913C60.775 68.0207 58.8257 68.4355 56.7105 68.4355C54.0147 68.4355 51.6299 67.8756 49.5562 66.7558C47.4825 65.5945 45.8443 63.9148 44.6415 61.7167C43.4802 59.477 42.8996 56.8227 42.8996 53.7536V33.5349H51.6092V52.5094C51.6092 55.2467 52.2935 57.3619 53.6622 58.8549C55.0308 60.3065 56.8972 61.0323 59.2612 61.0323C61.6667 61.0323 63.5538 60.3065 64.9224 58.8549C66.2911 57.3619 66.9754 55.2467 66.9754 52.5094V33.5349H75.7472Z" fill="url(#paint5_linear)"/>
<defs>
<linearGradient id="paint0_linear" x1="140.939" y1="24.0083" x2="140.939" y2="69.0781" gradientUnits="userSpaceOnUse">
<stop stop-color="#6990EA"/>
<stop offset="1" stop-color="#324A79"/>
</linearGradient>
<linearGradient id="paint1_linear" x1="140.939" y1="24.0083" x2="140.939" y2="69.0781" gradientUnits="userSpaceOnUse">
<stop stop-color="#6990EA"/>
<stop offset="1" stop-color="#324A79"/>
</linearGradient>
<linearGradient id="paint2_linear" x1="102.893" y1="23.9248" x2="102.893" y2="69.0782" gradientUnits="userSpaceOnUse">
<stop stop-color="#6990EA"/>
<stop offset="1" stop-color="#324A79"/>
</linearGradient>
<linearGradient id="paint3_linear" x1="102.893" y1="23.9248" x2="102.893" y2="69.0782" gradientUnits="userSpaceOnUse">
<stop stop-color="#6990EA"/>
<stop offset="1" stop-color="#324A79"/>
</linearGradient>
<linearGradient id="paint4_linear" x1="188.851" y1="0.34668" x2="188.851" y2="93.3467" gradientUnits="userSpaceOnUse">
<stop stop-color="#6990EA"/>
<stop offset="1" stop-color="#324A79"/>
</linearGradient>
<linearGradient id="paint5_linear" x1="40.5" y1="0" x2="40.5" y2="93" gradientUnits="userSpaceOnUse">
<stop stop-color="#6990EA"/>
<stop offset="1" stop-color="#324A79"/>
</linearGradient>
</defs>
</svg>
